<svg width="16" height="15" viewBox="0 0 16 15" fill="none" xmlns="http://www.w3.org/2000/svg">
<path d="M4.89361 7.09041H9.45414L7.4713 5.11358C7.35816 5.00044 7.29459 4.84698 7.29459 4.68697C7.29459 4.52696 7.35816 4.3735 7.4713 4.26036C7.58445 4.14721 7.7379 4.08365 7.89791 4.08365C8.05792 4.08365 8.21138 4.14721 8.32453 4.26036L11.3288 7.26466C11.3835 7.32181 11.4264 7.38919 11.455 7.46295C11.5151 7.60923 11.5151 7.77331 11.455 7.9196C11.4264 7.99336 11.3835 8.06074 11.3288 8.11788L8.32453 11.1222C8.26867 11.1785 8.20221 11.2232 8.12899 11.2537C8.05577 11.2842 7.97723 11.2999 7.89791 11.2999C7.81859 11.2999 7.74006 11.2842 7.66684 11.2537C7.59362 11.2232 7.52716 11.1785 7.4713 11.1222C7.41498 11.0663 7.37028 10.9999 7.33978 10.9267C7.30927 10.8534 7.29357 10.7749 7.29357 10.6956C7.29357 10.6163 7.30927 10.5377 7.33978 10.4645C7.37028 10.3913 7.41498 10.3248 7.4713 10.269L9.45414 8.29213H4.89361C4.73425 8.29213 4.58142 8.22883 4.46874 8.11615C4.35605 8.00346 4.29275 7.85063 4.29275 7.69127C4.29275 7.53191 4.35605 7.37908 4.46874 7.2664C4.58142 7.15372 4.73425 7.09041 4.89361 7.09041Z" fill="white"/>
</svg>
