<svg width="15" height="16" viewBox="0 0 15 16" fill="none" xmlns="http://www.w3.org/2000/svg">
<path d="M12.6181 2.55365V11.9518C12.6181 12.0137 12.6013 12.0743 12.5695 12.1262C12.5377 12.1782 12.4923 12.2191 12.439 12.2441L7.21033 14.7027L1.98164 12.2448C1.92812 12.2197 1.88267 12.1785 1.85086 12.1263C1.81906 12.0742 1.80228 12.0133 1.80258 11.9511V2.55365H0.600861V1.27682H13.8198V2.55365H12.6181ZM3.0043 2.55365V11.3287L7.21033 13.3077L11.4164 11.3287V2.55365H3.0043ZM4.80688 5.10731H9.61377V6.38414H4.80688V5.10731ZM4.80688 7.66097H9.61377V8.9378H4.80688V7.66097Z" fill="#0143D5"/>
</svg>
