<svg width="15" height="15" viewBox="0 0 15 15" fill="none" xmlns="http://www.w3.org/2000/svg">
<g clip-path="url(#clip0_37_358)">
<path d="M7.77552 13.6396C4.45696 13.6396 1.76691 10.9495 1.76691 7.63099C1.76691 4.31243 4.45696 1.62238 7.77552 1.62238C11.0941 1.62238 13.7841 4.31243 13.7841 7.63099C13.7841 10.9495 11.0941 13.6396 7.77552 13.6396ZM7.77552 12.4379C9.05038 12.4379 10.273 11.9314 11.1745 11.03C12.076 10.1285 12.5824 8.90585 12.5824 7.63099C12.5824 6.35612 12.076 5.13347 11.1745 4.232C10.273 3.33054 9.05038 2.8241 7.77552 2.8241C6.50065 2.8241 5.278 3.33054 4.37653 4.232C3.47507 5.13347 2.96863 6.35612 2.96863 7.63099C2.96863 8.90585 3.47507 10.1285 4.37653 11.03C5.278 11.9314 6.50065 12.4379 7.77552 12.4379V12.4379ZM7.17646 10.0344L4.62701 7.48498L5.47662 6.63536L7.17646 8.33519L10.5749 4.93612L11.4251 5.78574L7.17646 10.0344Z" fill="#03AC48"/>
</g>
<defs>
<clipPath id="clip0_37_358">
<rect width="14.4207" height="14.4207" fill="white" transform="translate(0.565186 0.420654)"/>
</clipPath>
</defs>
</svg>
