<svg width="38" height="38" viewBox="0 0 38 38" fill="none" xmlns="http://www.w3.org/2000/svg">
<circle cx="19" cy="19" r="19" fill="#000033"/>
<path fill-rule="evenodd" clip-rule="evenodd" d="M10 13.5C10 10.8748 10.0281 10 13.5 10C16.9719 10 17 10.8748 17 13.5C17 16.1252 17.0111 17 13.5 17C9.98893 17 10 16.1252 10 13.5Z" stroke="white" stroke-width="1.5" stroke-linecap="round" stroke-linejoin="round"/>
<path fill-rule="evenodd" clip-rule="evenodd" d="M21 13.5C21 10.8748 21.0281 10 24.5 10C27.9719 10 28 10.8748 28 13.5C28 16.1252 28.0111 17 24.5 17C20.9889 17 21 16.1252 21 13.5Z" stroke="white" stroke-width="1.5" stroke-linecap="round" stroke-linejoin="round"/>
<path fill-rule="evenodd" clip-rule="evenodd" d="M10 24.5C10 21.8748 10.0281 21 13.5 21C16.9719 21 17 21.8748 17 24.5C17 27.1252 17.0111 28 13.5 28C9.98893 28 10 27.1252 10 24.5Z" stroke="white" stroke-width="1.5" stroke-linecap="round" stroke-linejoin="round"/>
<path fill-rule="evenodd" clip-rule="evenodd" d="M21 24.5C21 21.8748 21.0281 21 24.5 21C27.9719 21 28 21.8748 28 24.5C28 27.1252 28.0111 28 24.5 28C20.9889 28 21 27.1252 21 24.5Z" stroke="white" stroke-width="1.5" stroke-linecap="round" stroke-linejoin="round"/>
</svg>
