<svg width="25" height="26" viewBox="0 0 25 26" fill="none" xmlns="http://www.w3.org/2000/svg">
<g clip-path="url(#clip0_30_341)">
<path d="M21 8H5C3.89543 8 3 8.89543 3 10V20C3 21.1046 3.89543 22 5 22H21C22.1046 22 23 21.1046 23 20V10C23 8.89543 22.1046 8 21 8Z" stroke="#8D91A0" stroke-width="2" stroke-linecap="round" stroke-linejoin="round"/>
<path d="M17 22V6C17 5.46957 16.7893 4.96086 16.4142 4.58579C16.0391 4.21071 15.5304 4 15 4H11C10.4696 4 9.96086 4.21071 9.58579 4.58579C9.21071 4.96086 9 5.46957 9 6V22" stroke="#8D91A0" stroke-width="2" stroke-linecap="round" stroke-linejoin="round"/>
</g>
<defs>
<clipPath id="clip0_30_341">
<rect width="24.4706" height="25.814" fill="white"/>
</clipPath>
</defs>
</svg>
