<svg width="15" height="15" viewBox="0 0 15 15" fill="none" xmlns="http://www.w3.org/2000/svg">
<g clip-path="url(#clip0_37_365)">
<path d="M8.91394 8.7824V10.0382C8.37012 9.84593 7.7881 9.78696 7.21676 9.86623C6.64541 9.9455 6.10143 10.1607 5.6305 10.4938C5.15956 10.8268 4.77542 11.2681 4.51033 11.7803C4.24524 12.2926 4.10695 12.8611 4.10706 13.4379L2.90533 13.4373C2.90515 12.7036 3.07293 11.9795 3.39582 11.3207C3.71871 10.6618 4.18814 10.0856 4.76813 9.63625C5.34813 9.18686 6.02331 8.87622 6.74192 8.72811C7.46054 8.58001 8.20352 8.59837 8.91394 8.7818V8.7824ZM7.71222 8.03013C5.72037 8.03013 4.10706 6.41681 4.10706 4.42496C4.10706 2.43311 5.72037 0.819794 7.71222 0.819794C9.70408 0.819794 11.3174 2.43311 11.3174 4.42496C11.3174 6.41681 9.70408 8.03013 7.71222 8.03013ZM7.71222 6.8284C9.04013 6.8284 10.1157 5.75286 10.1157 4.42496C10.1157 3.09706 9.04013 2.02152 7.71222 2.02152C6.38432 2.02152 5.30878 3.09706 5.30878 4.42496C5.30878 5.75286 6.38432 6.8284 7.71222 6.8284ZM12.5191 10.4336H14.3217V11.6353H12.5191V13.7383L9.51481 11.0344L12.5191 8.33056V10.4336Z" fill="#6009CD"/>
</g>
<defs>
<clipPath id="clip0_37_365">
<rect width="14.4207" height="14.4207" fill="white" transform="translate(0.501892 0.218933)"/>
</clipPath>
</defs>
</svg>
