<svg width="16" height="16" viewBox="0 0 16 16" fill="none" xmlns="http://www.w3.org/2000/svg">
<path fill-rule="evenodd" clip-rule="evenodd" d="M3.33333 9.33332C2.59695 9.33332 2 8.73637 2 7.99999C2 7.26361 2.59695 6.66666 3.33333 6.66666C4.06971 6.66666 4.66667 7.26361 4.66667 7.99999C4.66667 8.73637 4.06971 9.33332 3.33333 9.33332ZM8 9.33332C7.26362 9.33332 6.66667 8.73637 6.66667 7.99999C6.66667 7.26361 7.26362 6.66666 8 6.66666C8.73638 6.66666 9.33333 7.26361 9.33333 7.99999C9.33333 8.73637 8.73638 9.33332 8 9.33332ZM11.3333 7.99999C11.3333 8.73637 11.9303 9.33332 12.6667 9.33332C13.403 9.33332 14 8.73637 14 7.99999C14 7.26361 13.403 6.66666 12.6667 6.66666C11.9303 6.66666 11.3333 7.26361 11.3333 7.99999Z" fill="#5D5FEF"/>
</svg>
