<svg width="23" height="24" viewBox="0 0 23 24" fill="none" xmlns="http://www.w3.org/2000/svg">
<g clip-path="url(#clip0_30_359)">
<path d="M21.21 16.0848C20.5738 17.5893 19.5788 18.915 18.3119 19.9461C17.0449 20.9772 15.5447 21.6823 13.9424 21.9996C12.3401 22.317 10.6844 22.237 9.12012 21.7666C7.55585 21.2963 6.1306 20.4499 4.969 19.3015C3.80739 18.1531 2.94479 16.7376 2.45661 15.1788C1.96843 13.62 1.86954 11.9653 2.16857 10.3595C2.46761 8.75361 3.15547 7.24545 4.17202 5.96686C5.18857 4.68826 6.50286 3.67814 7.99998 3.02483" stroke="#8D91A0" stroke-width="2" stroke-linecap="round" stroke-linejoin="round"/>
<path d="M22 12.1948C22 10.8816 21.7413 9.58125 21.2388 8.36799C20.7362 7.15473 19.9997 6.05234 19.0711 5.12376C18.1425 4.19517 17.0401 3.45858 15.8268 2.95603C14.6136 2.45348 13.3132 2.19482 12 2.19482V12.1948H22Z" stroke="#8D91A0" stroke-width="2" stroke-linecap="round" stroke-linejoin="round"/>
</g>
<defs>
<clipPath id="clip0_30_359">
<rect width="24" height="24" fill="white" transform="translate(0 0.694824)"/>
</clipPath>
</defs>
</svg>
