<svg width="17" height="17" viewBox="0 0 17 17" fill="none" xmlns="http://www.w3.org/2000/svg">
<g clip-path="url(#clip0_37_343)">
<path d="M12.8579 15.1403H3.74482C3.22691 15.1403 2.7302 14.9346 2.36398 14.5684C1.99776 14.2021 1.79202 13.7054 1.79202 13.1875V2.77261C1.79202 2.59997 1.8606 2.4344 1.98268 2.31233C2.10475 2.19025 2.27032 2.12167 2.44296 2.12167H11.556C11.7287 2.12167 11.8942 2.19025 12.0163 2.31233C12.1384 2.4344 12.2069 2.59997 12.2069 2.77261V10.5838H14.8107V13.1875C14.8107 13.7054 14.6049 14.2021 14.2387 14.5684C13.8725 14.9346 13.3758 15.1403 12.8579 15.1403ZM12.2069 11.8857V13.1875C12.2069 13.3602 12.2755 13.5257 12.3976 13.6478C12.5197 13.7699 12.6852 13.8385 12.8579 13.8385C13.0305 13.8385 13.1961 13.7699 13.3182 13.6478C13.4402 13.5257 13.5088 13.3602 13.5088 13.1875V11.8857H12.2069ZM10.9051 13.8385V3.42354H3.09389V13.1875C3.09389 13.3602 3.16247 13.5257 3.28454 13.6478C3.40662 13.7699 3.57218 13.8385 3.74482 13.8385H10.9051ZM4.39575 5.37634H9.60322V6.6782H4.39575V5.37634ZM4.39575 7.98007H9.60322V9.28193H4.39575V7.98007ZM4.39575 10.5838H7.65042V11.8857H4.39575V10.5838Z" fill="#FF2F28"/>
</g>
<defs>
<clipPath id="clip0_37_343">
<rect width="15.6224" height="15.6224" fill="white" transform="translate(0.490158 0.819794)"/>
</clipPath>
</defs>
</svg>
