<svg width="23" height="23" viewBox="0 0 23 23" fill="none" xmlns="http://www.w3.org/2000/svg">
<g clip-path="url(#clip0_30_317)">
<path d="M11.8124 14.0208C13.3418 14.0208 14.5817 12.781 14.5817 11.2516C14.5817 9.72216 13.3418 8.48233 11.8124 8.48233C10.283 8.48233 9.04321 9.72216 9.04321 11.2516C9.04321 12.781 10.283 14.0208 11.8124 14.0208Z" stroke="#8D91A0" stroke-width="1.84615" stroke-linecap="round" stroke-linejoin="round"/>
<path d="M18.6432 14.0208C18.5204 14.2992 18.4837 14.6081 18.538 14.9075C18.5923 15.2069 18.7351 15.4832 18.9479 15.7008L19.0032 15.7562C19.1749 15.9276 19.3111 16.1312 19.404 16.3554C19.4969 16.5795 19.5447 16.8197 19.5447 17.0623C19.5447 17.3049 19.4969 17.5452 19.404 17.7693C19.3111 17.9934 19.1749 18.197 19.0032 18.3685C18.8318 18.5401 18.6282 18.6763 18.4041 18.7692C18.1799 18.8621 17.9397 18.9099 17.6971 18.9099C17.4545 18.9099 17.2142 18.8621 16.9901 18.7692C16.766 18.6763 16.5624 18.5401 16.3909 18.3685L16.3356 18.3131C16.118 18.1003 15.8417 17.9575 15.5423 17.9033C15.2428 17.849 14.934 17.8856 14.6556 18.0085C14.3825 18.1255 14.1497 18.3198 13.9857 18.5674C13.8217 18.8151 13.7337 19.1053 13.7325 19.4023V19.5593C13.7325 20.0489 13.538 20.5185 13.1918 20.8647C12.8455 21.2109 12.376 21.4054 11.8863 21.4054C11.3967 21.4054 10.9271 21.2109 10.5809 20.8647C10.2347 20.5185 10.0402 20.0489 10.0402 19.5593V19.4762C10.033 19.1706 9.93412 18.8743 9.75633 18.6258C9.57854 18.3772 9.33008 18.1878 9.04325 18.0823C8.76483 17.9595 8.45599 17.9228 8.15655 17.9771C7.85711 18.0314 7.5808 18.1741 7.36325 18.3869L7.30786 18.4423C7.1364 18.614 6.93279 18.7502 6.70867 18.8431C6.48455 18.936 6.24432 18.9838 6.00171 18.9838C5.75909 18.9838 5.51886 18.936 5.29474 18.8431C5.07062 18.7502 4.86701 18.614 4.69555 18.4423C4.5239 18.2709 4.38773 18.0673 4.29483 17.8431C4.20192 17.619 4.1541 17.3788 4.1541 17.1362C4.1541 16.8936 4.20192 16.6533 4.29483 16.4292C4.38773 16.2051 4.5239 16.0015 4.69555 15.83L4.75094 15.7746C4.96374 15.5571 5.10649 15.2808 5.16079 14.9813C5.21508 14.6819 5.17843 14.3731 5.05555 14.0946C4.93854 13.8216 4.74425 13.5888 4.4966 13.4248C4.24895 13.2608 3.95874 13.1727 3.66171 13.1716H3.50478C3.01515 13.1716 2.54558 12.9771 2.19936 12.6308C1.85314 12.2846 1.65863 11.815 1.65863 11.3254C1.65863 10.8358 1.85314 10.3662 2.19936 10.02C2.54558 9.67376 3.01515 9.47926 3.50478 9.47926H3.58786C3.89339 9.47211 4.18971 9.37321 4.43829 9.19542C4.68687 9.01763 4.87621 8.76917 4.98171 8.48233C5.10458 8.20392 5.14124 7.89508 5.08694 7.59564C5.03265 7.29619 4.8899 7.01988 4.67709 6.80233L4.62171 6.74695C4.45006 6.57549 4.31389 6.37188 4.22098 6.14776C4.12808 5.92364 4.08026 5.68341 4.08026 5.44079C4.08026 5.19818 4.12808 4.95795 4.22098 4.73383C4.31389 4.50971 4.45006 4.3061 4.62171 4.13464C4.79317 3.96299 4.99678 3.82682 5.22089 3.73391C5.44501 3.64101 5.68525 3.59319 5.92786 3.59319C6.17047 3.59319 6.41071 3.64101 6.63483 3.73391C6.85895 3.82682 7.06256 3.96299 7.23402 4.13464L7.2894 4.19003C7.50695 4.40283 7.78326 4.54558 8.0827 4.59988C8.38214 4.65417 8.69099 4.61752 8.9694 4.49464H9.04325C9.31626 4.37763 9.54911 4.18334 9.71312 3.93569C9.87712 3.68803 9.96514 3.39783 9.96632 3.10079V2.94387C9.96632 2.45424 10.1608 1.98466 10.507 1.63844C10.8533 1.29222 11.3228 1.09772 11.8125 1.09772C12.3021 1.09772 12.7717 1.29222 13.1179 1.63844C13.4641 1.98466 13.6586 2.45424 13.6586 2.94387V3.02695C13.6598 3.32398 13.7478 3.61419 13.9118 3.86184C14.0758 4.10949 14.3087 4.30378 14.5817 4.42079C14.8601 4.54367 15.169 4.58032 15.4684 4.52603C15.7678 4.47174 16.0442 4.32898 16.2617 4.11618L16.3171 4.06079C16.4886 3.88915 16.6922 3.75298 16.9163 3.66007C17.1404 3.56716 17.3806 3.51934 17.6232 3.51934C17.8659 3.51934 18.1061 3.56716 18.3302 3.66007C18.5543 3.75298 18.7579 3.88915 18.9294 4.06079C19.101 4.23225 19.2372 4.43586 19.3301 4.65998C19.423 4.8841 19.4709 5.12434 19.4709 5.36695C19.4709 5.60956 19.423 5.8498 19.3301 6.07392C19.2372 6.29803 19.101 6.50164 18.9294 6.6731L18.874 6.72849C18.6612 6.94604 18.5185 7.22235 18.4642 7.52179C18.4099 7.82123 18.4465 8.13007 18.5694 8.40849V8.48233C18.6864 8.75535 18.8807 8.9882 19.1284 9.1522C19.376 9.31621 19.6662 9.40423 19.9632 9.40541H20.1202C20.6098 9.40541 21.0794 9.59992 21.4256 9.94614C21.7718 10.2924 21.9663 10.7619 21.9663 11.2516C21.9663 11.7412 21.7718 12.2108 21.4256 12.557C21.0794 12.9032 20.6098 13.0977 20.1202 13.0977H20.0371C19.7401 13.0989 19.4499 13.1869 19.2022 13.3509C18.9546 13.5149 18.7603 13.7478 18.6432 14.0208V14.0208Z" stroke="#8D91A0" stroke-width="1.84615" stroke-linecap="round" stroke-linejoin="round"/>
</g>
<defs>
<clipPath id="clip0_30_317">
<rect width="22.1538" height="22.1538" fill="white" transform="translate(0.735535 0.174652)"/>
</clipPath>
</defs>
</svg>
